<svg width="760" height="192" viewBox="0 0 760 192" fill="none" xmlns="http://www.w3.org/2000/svg" role="img" aria-labelledby="title desc">
  <title id="title">JSRay logo</title>
  <desc id="desc">JSRay wordmark with a bracket ray symbol.</desc>
  <defs>
    <linearGradient id="jr-logo-ink" x1="28" y1="32" x2="164" y2="160" gradientUnits="userSpaceOnUse">
      <stop offset="0" stop-color="#202124"/>
      <stop offset="1" stop-color="#31404A"/>
    </linearGradient>
    <linearGradient id="jr-logo-glow" x1="77" y1="58" x2="115" y2="132" gradientUnits="userSpaceOnUse">
      <stop offset="0" stop-color="#FFCB6B"/>
      <stop offset="0.55" stop-color="#5DD8B0"/>
      <stop offset="1" stop-color="#5AC8FA"/>
    </linearGradient>
    <linearGradient id="jr-word-glow" x1="404" y1="52" x2="610" y2="132" gradientUnits="userSpaceOnUse">
      <stop offset="0" stop-color="#1F7F66"/>
      <stop offset="0.55" stop-color="#0F8568"/>
      <stop offset="1" stop-color="#0F68A0"/>
    </linearGradient>
  </defs>
  <g>
    <rect x="16" y="16" width="160" height="160" rx="38" fill="#F8FAFC"/>
    <rect x="16" y="16" width="160" height="160" rx="38" stroke="#E2E8F0" stroke-width="2"/>
    <path d="M75 51L39 96L75 141" stroke="url(#jr-logo-ink)" stroke-width="16" stroke-linecap="round" stroke-linejoin="round"/>
    <path d="M117 51L153 96L117 141" stroke="url(#jr-logo-ink)" stroke-width="16" stroke-linecap="round" stroke-linejoin="round"/>
    <path d="M96 62L105 87L130 96L105 105L96 130L87 105L62 96L87 87L96 62Z" fill="url(#jr-logo-glow)"/>
    <circle cx="96" cy="96" r="5" fill="#FFFFFF"/>
  </g>
  <g font-family="Inter, ui-sans-serif, system-ui, -apple-system, BlinkMacSystemFont, 'Segoe UI', sans-serif" font-weight="760" font-size="76" letter-spacing="0">
    <text x="218" y="121" fill="#202124">JS</text>
    <text x="316" y="121" fill="url(#jr-word-glow)">Ray</text>
  </g>
  <text x="222" y="154" fill="#64748B" font-family="Inter, ui-sans-serif, system-ui, -apple-system, BlinkMacSystemFont, 'Segoe UI', sans-serif" font-size="20" font-weight="520" letter-spacing="0">open-source code rendering ecosystem</text>
</svg>
